HIERARCHY
ROOT Hips
{
    OFFSET 0.000000 0.000000 0.000000
    CHANNELS 6 Xposition Yposition Zposition Zrotation Xrotation Yrotation
    JOINT Spine
    {
        OFFSET -0.000000 0.083210 0.000000
        CHANNELS 3 Zrotation Xrotation Yrotation
        JOINT Spine1
        {
            OFFSET -0.000000 0.256334 0.000000
            CHANNELS 3 Zrotation Xrotation Yrotation
            JOINT Neck
            {
                OFFSET -0.000000 0.275576 0.002912
                CHANNELS 3 Zrotation Xrotation Yrotation
                JOINT Head
                {
                    OFFSET -0.000000 0.157287 0.020295
                    CHANNELS 3 Zrotation Xrotation Yrotation
                    End Site
                    {
                        OFFSET -0.000000 0.202951 0.000000
                    }
                }
            }
            JOINT LeftShoulder
            {
                OFFSET 0.041044 0.235234 -0.000041
                CHANNELS 3 Zrotation Xrotation Yrotation
                JOINT LeftArm
                {
                    OFFSET 0.117964 0.000000 0.000000
                    CHANNELS 3 Zrotation Xrotation Yrotation
                    JOINT LeftForeArm
                    {
                        OFFSET 0.291248 0.000000 0.000000
                        CHANNELS 3 Zrotation Xrotation Yrotation
                        JOINT LeftHand
                        {
                            OFFSET 0.245673 0.000000 0.000000
                            CHANNELS 3 Zrotation Xrotation Yrotation
                            End Site
                            {
                                OFFSET 0.152213 0.000000 0.000000
                            }
                        }
                    }
                }
            }
            JOINT RightShoulder
            {
                OFFSET -0.040052 0.235234 -0.000041
                CHANNELS 3 Zrotation Xrotation Yrotation
                JOINT RightArm
                {
                    OFFSET -0.117964 0.000000 0.000000
                    CHANNELS 3 Zrotation Xrotation Yrotation
                    JOINT RightForeArm
                    {
                        OFFSET -0.291248 0.000000 0.000000
                        CHANNELS 3 Zrotation Xrotation Yrotation
                        JOINT RightHand
                        {
                            OFFSET -0.245673 0.000000 0.000000
                            CHANNELS 3 Zrotation Xrotation Yrotation
                            End Site
                            {
                                OFFSET -0.152213 0.000000 0.000000
                            }
                        }
                    }
                }
            }
        }
    }
    JOINT LeftUpLeg
    {
        OFFSET 0.101475 0.000000 0.000000
        CHANNELS 3 Zrotation Xrotation Yrotation
        JOINT LeftLeg
        {
            OFFSET -0.000000 -0.446535 0.000000
            CHANNELS 3 Zrotation Xrotation Yrotation
            JOINT LeftFoot
            {
                OFFSET -0.000000 -0.400037 0.000000
                CHANNELS 3 Zrotation Xrotation Yrotation
                JOINT LeftToeBase
                {
                    OFFSET -0.000000 -0.065959 0.152213
                    CHANNELS 3 Zrotation Xrotation Yrotation
                    End Site
                    {
                        OFFSET -0.000000 0.000000 0.040590
                    }
                }
            }
        }
    }
    JOINT RightUpLeg
    {
        OFFSET -0.101475 0.000000 0.000000
        CHANNELS 3 Zrotation Xrotation Yrotation
        JOINT RightLeg
        {
            OFFSET -0.000000 -0.446535 0.000000
            CHANNELS 3 Zrotation Xrotation Yrotation
            JOINT RightFoot
            {
                OFFSET -0.000000 -0.400037 0.000000
                CHANNELS 3 Zrotation Xrotation Yrotation
                JOINT RightToeBase
                {
                    OFFSET -0.000000 -0.065959 0.152213
                    CHANNELS 3 Zrotation Xrotation Yrotation
                    End Site
                    {
                        OFFSET -0.000000 0.000000 0.040590
                    }
                }
            }
        }
    }
}
MOTION
Frames:    6
Frame Time:    0.008333
-2.396454    0.963403    -2.137888    0.772785    0.851346    -3.002219    -1.518696    -1.820156    -0.234294    -0.660942    2.478331    -0.056068    4.945258    -3.752260    2.208818    -1.106586    3.776071    2.954670    15.625265    -1.189383    1.452841    -23.605326    -0.112340    6.253963    -1.538546    -0.459443    0.904047    18.241961    -0.188246    1.613895    -10.051863    0.416249    4.537479    22.675385    0.295171    -3.120593    -1.072470    -0.935443    0.052074    -2.813048    -0.786966    -6.023891    3.085055    5.907840    2.038495    -0.676978    0.716911    9.284957    -4.753377    -6.966235    -1.953451    -0.091181    4.455895    0.733306    -4.591159    2.033580    3.944263    2.541843    8.624641    0.606049    3.218167    -11.328650    -8.232275    0.010955    -1.391151    0.290232    
-2.396430    0.963317    -2.137545    0.778109    0.872181    -3.018479    -1.528428    -1.792170    -0.221104    -0.652114    2.459610    -0.051930    4.924005    -3.757173    2.193485    -1.085972    3.758737    2.932990    15.617182    -1.200342    1.439972    -23.575352    -0.144244    6.284766    -1.518928    -0.443570    0.885321    17.871006    -0.205465    1.439859    -10.051090    0.397993    4.545118    22.663368    0.315948    -3.142414    -1.086801    -0.937123    0.046082    -2.757782    -0.791555    -6.024753    3.085653    5.865626    1.982360    -0.695746    0.829744    9.294872    -4.739887    -7.102634    -1.909338    -0.093515    4.381648    0.755962    -4.609827    2.032868    4.052653    2.573710    8.628118    0.612563    3.186912    -11.393353    -8.316586    0.010705    -1.393608    0.283469    
-2.396401    0.963227    -2.137209    0.783783    0.895168    -3.037580    -1.539308    -1.762491    -0.217881    -0.658140    2.438966    -0.050971    4.953376    -3.772914    2.198002    -1.088851    3.760853    2.940343    15.641392    -1.121297    1.482551    -23.576891    -0.200186    6.230275    -1.506751    -0.458942    0.893916    17.915573    -0.216317    1.465282    -10.033812    0.397034    4.579138    22.628183    0.283977    -3.171643    -1.059200    -0.929667    0.052123    -2.790089    -0.782428    -6.020391    3.093808    5.807956    1.931338    -0.730652    0.973611    9.280918    -4.715876    -7.263853    -1.848344    -0.095637    4.291981    0.777975    -4.627531    2.023024    4.156594    2.602052    8.646232    0.607333    3.159943    -11.465573    -8.380060    0.010546    -1.400718    0.278797    
-2.396381    0.963133    -2.136865    0.790270    0.916359    -3.056294    -1.553058    -1.731706    -0.211921    -0.647120    2.421202    -0.049973    4.938438    -3.763983    2.205529    -1.073139    3.722279    2.944159    15.638047    -1.127162    1.493446    -23.555441    -0.172073    6.231136    -1.500819    -0.481591    0.931495    17.930887    -0.241324    1.446665    -10.031513    0.426424    4.575445    22.599121    0.234512    -3.148676    -1.052719    -0.919690    0.049669    -2.824746    -0.770202    -6.040815    3.101682    5.749029    1.866991    -0.766171    1.125322    9.234330    -4.701828    -7.434608    -1.737426    -0.095919    4.218428    0.784312    -4.647199    2.009755    4.267683    2.635522    8.675735    0.611588    3.127371    -11.549328    -8.459744    0.009827    -1.418136    0.258751    
-2.396349    0.963139    -2.136687    0.720254    0.981775    -3.137038    -1.448538    -1.714286    -0.161376    -0.693542    2.375572    -0.032518    4.956077    -3.755652    2.198915    -1.086086    3.693842    2.941269    15.646425    -1.219547    1.497392    -23.508017    -0.083557    6.275770    -1.522357    -0.501086    0.985870    18.211950    -0.227239    1.627662    -10.013138    0.419268    4.579622    22.577791    0.207049    -3.140282    -1.047870    -0.906019    0.044595    -2.848114    -0.754412    -6.076519    3.183729    5.631681    1.919394    -0.804322    1.318380    9.129884    -4.671556    -7.619129    -1.621896    -0.098014    4.127677    0.806597    -4.581302    1.913070    4.455103    2.657604    8.744388    0.603782    3.104171    -11.643267    -8.544172    0.009999    -1.422780    0.263002    
-2.396295    0.962889    -2.136081    0.845034    0.909700    -3.110025    -1.612690    -1.616832    -0.193639    -0.666989    2.376841    -0.043985    4.953479    -3.737840    2.198491    -1.084492    3.670810    2.940942    15.658519    -1.225927    1.508831    -23.450575    -0.210113    6.309123    -1.546450    -0.450917    0.964399    18.210325    -0.175764    1.635623    -10.008882    0.373331    4.616321    22.586903    0.271589    -3.177671    -1.088953    -0.934738    0.031947    -2.817283    -0.784962    -6.073772    3.063392    5.615495    1.841641    -0.823473    1.582795    8.989347    -4.651039    -7.854262    -1.459607    -0.099689    4.020152    0.826684    -4.729747    2.023097    4.521765    2.695977    8.764369    0.578815    3.070193    -11.759415    -8.591534    0.009965    -1.427327    0.261820    
